<svg xmlns="http://www.w3.org/2000/svg" width="88" height="91" fill="none" viewBox="0 0 88 91"><path fill="#3B82F6" d="M0.936035 37.5833C0.936035 14.7583 18.3527 0 37.6027 0C55.936 0 72.6194 13.3833 74.1319 34.375H84.7652C86.8277 34.375 87.836 36.85 86.3694 38.2708L71.2902 53.35C70.3735 54.2667 68.9527 54.2667 68.036 53.35L52.9569 38.2708C52.6428 37.9505 52.4297 37.5451 52.3439 37.1048C52.2581 36.6645 52.3034 36.2087 52.4742 35.7939C52.645 35.3791 52.9337 35.0235 53.3047 34.7713C53.6757 34.5191 54.1125 34.3813 54.561 34.375H64.9194C63.4985 19.4333 51.9485 9.16667 37.6027 9.16667C22.2485 9.16667 10.1027 20.9458 10.1027 37.5833C10.1027 48.3083 19.0402 62.5166 37.6027 79.475C40.536 76.7708 43.2402 74.1583 45.7152 71.6375C44.9087 70.046 44.4849 68.2882 44.4777 66.5041C44.4777 63.4652 45.6849 60.5508 47.8338 58.4019C49.9826 56.253 52.8971 55.0458 55.936 55.0458C58.975 55.0458 61.8894 56.253 64.0383 58.4019C66.1872 60.5508 67.3944 63.4652 67.3944 66.5041C67.3928 68.2765 66.9787 70.0242 66.185 71.6089C65.3912 73.1936 64.2396 74.5719 62.8211 75.6346C61.4027 76.6973 59.7564 77.4153 58.0125 77.7319C56.2686 78.0484 54.475 77.9547 52.7735 77.4583C49.1985 81.2166 45.1194 85.0666 40.6277 89.0083C38.886 90.5208 36.2735 90.5208 34.5319 89.0083C12.1652 69.3 0.936035 52.1583 0.936035 37.5833Z"/><path fill="#4ADE80" d="M67.9999 67.2269C67.9999 73.8543 62.6273 79.2269 55.9999 79.2269C49.3725 79.2269 43.9999 73.8543 43.9999 67.2269C43.9999 60.5995 49.3725 55.227 55.9999 55.227C62.6273 55.227 67.9999 60.5995 67.9999 67.2269Z"/></svg>