<svg xmlns="http://www.w3.org/2000/svg" width="32" fill="none" viewBox="0 0 93 103"><path fill="#F97316" fill-rule="evenodd" d="M78.7329 13.5665C70.1532 4.98675 58.5165 0.166672 46.3828 0.166672C34.2492 0.166672 22.6125 4.98675 14.0327 13.5665C5.45289 22.1463 0.632812 33.783 0.632812 45.9167C0.632812 61.5428 9.15248 74.3274 18.1296 83.5079C22.9337 88.357 28.1996 92.7257 33.8524 96.5518L35.9366 97.9395L36.9126 98.5749L39.5559 100.202L41.6706 101.432C43.1066 102.249 44.7305 102.679 46.3828 102.679C48.0351 102.679 49.6591 102.249 51.0951 101.432L53.2097 100.202L54.9177 99.1595L56.8341 97.9395L57.8508 97.2634L60.0163 95.7893C65.2561 92.1528 70.15 88.0417 74.636 83.5079C83.6132 74.3325 92.1328 61.5428 92.1328 45.9167C92.1328 33.783 87.3127 22.1463 78.7329 13.5665ZM46.3829 85.7939C68.8357 85.7939 87.0372 67.5923 87.0372 45.1395C87.0372 22.6867 68.8357 4.48515 46.3829 4.48515C23.9301 4.48515 5.72852 22.6867 5.72852 45.1395C5.72852 67.5923 23.9301 85.7939 46.3829 85.7939Z" clip-rule="evenodd"/><circle cx="46.383" cy="45.139" r="40.654" fill="#161E29"/><path fill="#F97316" fill-rule="evenodd" d="M29.7201 14.2803H64.2389C68.6322 14.2803 71.9795 17.8368 71.9795 22.0209V58.0042C71.9795 59.887 71.3519 61.5607 70.3059 62.8159V66.7908C70.3059 68.4644 69.0506 69.7197 67.377 69.7197H61.31C59.6364 69.7197 58.3812 68.4644 58.3812 66.7908V65.7448H35.5778V66.7908C35.5778 68.4644 34.3226 69.7197 32.6489 69.7197H26.582C25.1176 69.7197 23.6531 68.4644 23.6531 66.7908V62.8159C22.6071 61.5607 21.9795 59.887 21.9795 58.0042V22.0209C21.9795 17.8368 25.536 14.2803 29.7201 14.2803ZM38.7159 16.5816H55.2431C57.9628 16.5816 57.9628 20.5565 55.2431 20.5565H38.7159C35.9962 20.5565 35.9962 16.5816 38.7159 16.5816ZM31.8121 22.4393H62.1469C66.331 22.4393 69.8874 25.7866 69.8874 29.9707V41.6862C69.8874 45.8703 66.331 49.4268 62.1469 49.4268H31.8121C27.628 49.4268 24.2807 45.8703 24.2807 41.6862V29.9707C24.2807 25.7866 27.628 22.4393 31.8121 22.4393ZM64.4481 52.5648C62.5653 52.5648 61.1008 54.0293 61.1008 55.9121C61.1008 57.795 62.5653 59.2594 64.4481 59.2594C66.331 59.2594 67.7954 57.795 67.7954 55.9121C67.7954 54.0293 66.331 52.5648 64.4481 52.5648ZM29.5109 52.5648C31.3937 52.5648 32.8582 54.0293 32.8582 55.9121C32.8582 57.795 31.3937 59.2594 29.5109 59.2594C27.628 59.2594 26.1636 57.795 26.1636 55.9121C26.1636 54.0293 27.628 52.5648 29.5109 52.5648Z" clip-rule="evenodd"/></svg>