<svg xmlns="http://www.w3.org/2000/svg" width="120" fill="none" viewBox="0 0 120 33"><path fill="#64748B" fill-rule="evenodd" d="M35.0761 0.392822C28.9649 0.481721 22.6396 0.893522 17.387 1.55267C11.832 2.25053 9.31262 2.9484 8.11881 3.50504C5.27484 4.01579 4.3245 4.45828 3.6235 5.56686C3.60586 5.59275 3.59292 5.61981 3.57998 5.64688L2.33207 8.6537C2.24974 8.85258 2.29561 9.08324 2.44851 9.23505L2.78019 9.56457C2.88016 9.66577 3.01542 9.71873 3.15538 9.71873C3.18949 9.71873 3.22478 9.71638 3.25889 9.70932C3.43178 9.67637 3.57763 9.55633 3.64585 9.39392L5.24308 5.56215C5.26661 5.50919 5.27837 5.45506 5.28307 5.40092C5.60534 5.21616 6.04288 5.05376 6.67683 4.89371C4.68087 8.19002 2.10624 13.6552 0.866562 18.4732C0.761883 18.8804 0.873619 19.2334 0.970065 19.4782C0.873386 19.8433 0.769949 20.1926 0.668572 20.5349L0.661908 20.5574L0.659391 20.5658C0.379219 21.5065 0.11499 22.3937 0.11499 23.3206C0.11499 25.4801 0.498421 26.8335 1.25587 27.3418C1.39701 27.436 1.5558 27.5019 1.72281 27.5301L1.77612 27.5389C2.53626 27.6643 9.88715 28.8764 14.0467 28.8764H18.6314C18.3797 28.1656 18.2421 27.4007 18.2421 26.6016C18.2421 23.7607 19.9781 21.3176 22.4434 20.2773H13.3539C10.8181 20.2773 8.8304 20.4303 7.29785 20.6409C7.28021 20.6751 7.25433 20.7092 7.2214 20.7327C4.99256 22.438 3.48236 22.6933 2.78136 22.6933C2.50614 22.6933 2.35559 22.6545 2.3356 22.6474C2.26738 22.6286 2.20857 22.5827 2.17446 22.5215C2.14035 22.458 2.13212 22.3862 2.15211 22.3179L2.38617 21.5153C2.40381 21.4506 2.4438 21.3976 2.49908 21.3635C2.60259 21.2964 5.14546 19.7442 13.3551 19.7442H25.0145C25.0427 19.743 25.0697 19.743 25.0967 19.743C25.1237 19.743 25.1509 19.743 25.178 19.7442H35.0761V13.1716H22.294C18.7631 13.1716 16.7319 14.0307 14.9359 14.9863C15.6663 14.3343 16.4061 13.6223 17.1718 12.8821C20.9308 9.25388 25.1591 5.17615 31.9245 4.65481H35.0761V0.392822ZM8.41638 17.1693H3.93283C5.30189 13.4422 7.53661 8.99498 8.56341 6.99789C9.32674 5.51507 12.7835 4.65128 21.8282 4.65128H26.954C22.4716 6.28708 19.2124 9.42923 16.4331 12.1124C13.6233 14.8274 11.1968 17.1693 8.41638 17.1693Z" clip-rule="evenodd"/><path fill="#64748B" d="M35.0761 20.2761H27.7491C30.2167 21.3164 31.9515 23.7596 31.9515 26.6004C31.9515 27.3983 31.8139 28.1633 31.561 28.8764H35.0761V20.2761Z"/><path fill="#64748B" fill-rule="evenodd" d="M25.098 20.8069C21.9047 20.8069 19.3089 23.4053 19.3089 26.6004C19.3089 29.7944 21.9059 32.3928 25.098 32.3928C28.2901 32.3928 30.8883 29.7944 30.8883 26.6004C30.8883 23.4053 28.2901 20.8069 25.098 20.8069ZM25.098 28.8941C23.8312 28.8941 22.8033 27.8667 22.8033 26.6004C22.8033 25.3342 23.8312 24.3056 25.098 24.3056C26.3647 24.3056 27.3915 25.3342 27.3915 26.6004C27.3915 27.8667 26.3647 28.8941 25.098 28.8941Z" clip-rule="evenodd"/><path fill="#64748B" d="M40.4604 30.5554V2.46437H51.7078C53.7744 2.46437 55.4981 2.7707 56.8789 3.38336C58.2596 3.99602 59.2975 4.84643 59.9925 5.93459C60.6874 7.01361 61.0349 8.25722 61.0349 9.66543C61.0349 10.7627 60.8154 11.7274 60.3765 12.5596C59.9376 13.3825 59.3341 14.0592 58.566 14.5896C57.807 15.1108 56.9383 15.4811 55.9599 15.7006V15.9749C57.0297 16.0207 58.031 16.3224 58.9637 16.8802C59.9056 17.438 60.6691 18.2198 61.2544 19.2257C61.8396 20.2224 62.1322 21.4112 62.1322 22.7919C62.1322 24.2824 61.7619 25.6129 61.0212 26.7834C60.2897 27.9447 59.2061 28.8637 57.7704 29.5404C56.3348 30.217 54.5654 30.5554 52.4622 30.5554H40.4604ZM46.3996 25.6998H51.2415C52.8966 25.6998 54.1036 25.3843 54.8626 24.7534C55.6215 24.1133 56.001 23.2629 56.001 22.2021C56.001 21.4249 55.8136 20.7391 55.4386 20.1447C55.0637 19.5503 54.5288 19.084 53.8338 18.7456C53.148 18.4073 52.3296 18.2381 51.3786 18.2381H46.3996V25.6998ZM46.3996 14.2192H50.8025C51.6164 14.2192 52.3388 14.0775 52.9697 13.794C53.6098 13.5014 54.1127 13.0899 54.4785 12.5596C54.8534 12.0292 55.0409 11.3937 55.0409 10.653C55.0409 9.638 54.6797 8.81959 53.9573 8.19778C53.244 7.57598 52.229 7.26507 50.9123 7.26507H46.3996V14.2192Z"/><path fill="#64748B" d="M85.2792 2.46437H91.2183V20.7071C91.2183 22.7554 90.7291 24.5476 89.7507 26.0839C88.7814 27.6201 87.4235 28.818 85.6769 29.6775C83.9304 30.5279 81.8958 30.9531 79.5732 30.9531C77.2414 30.9531 75.2023 30.5279 73.4557 29.6775C71.7092 28.818 70.3513 27.6201 69.382 26.0839C68.4127 24.5476 67.928 22.7554 67.928 20.7071V2.46437H73.8672V20.1996C73.8672 21.2694 74.1004 22.2204 74.5667 23.0525C75.0422 23.8847 75.7098 24.5385 76.5693 25.014C77.4289 25.4895 78.4302 25.7272 79.5732 25.7272C80.7254 25.7272 81.7266 25.4895 82.5771 25.014C83.4366 24.5385 84.0996 23.8847 84.5659 23.0525C85.0414 22.2204 85.2792 21.2694 85.2792 20.1996V2.46437Z"/><path fill="#64748B" d="M113.275 10.5433C113.165 9.43682 112.694 8.57727 111.862 7.96461C111.03 7.35194 109.901 7.04561 108.474 7.04561C107.505 7.04561 106.686 7.18278 106.019 7.4571C105.351 7.72229 104.839 8.09263 104.483 8.56812C104.135 9.04362 103.961 9.58313 103.961 10.1866C103.943 10.6896 104.048 11.1285 104.277 11.5034C104.515 11.8783 104.839 12.2029 105.251 12.4773C105.662 12.7425 106.138 12.9756 106.677 13.1768C107.217 13.3688 107.793 13.5334 108.406 13.6706L110.929 14.2741C112.155 14.5484 113.279 14.9142 114.304 15.3714C115.328 15.8286 116.215 16.391 116.965 17.0585C117.714 17.726 118.295 18.5125 118.707 19.4177C119.127 20.323 119.342 21.3609 119.351 22.5313C119.342 24.2504 118.903 25.7409 118.034 27.0028C117.175 28.2556 115.931 29.2295 114.304 29.9244C112.685 30.6102 110.733 30.9531 108.447 30.9531C106.179 30.9531 104.204 30.6057 102.521 29.9107C100.848 29.2157 99.5402 28.187 98.5984 26.8245C97.6657 25.4529 97.1765 23.7567 97.1308 21.7358H102.878C102.942 22.6776 103.212 23.464 103.687 24.095C104.172 24.7168 104.816 25.1877 105.621 25.5078C106.435 25.8187 107.354 25.9741 108.378 25.9741C109.384 25.9741 110.257 25.8278 110.998 25.5352C111.748 25.2426 112.328 24.8357 112.74 24.3144C113.151 23.7932 113.357 23.1943 113.357 22.5176C113.357 21.8867 113.17 21.3563 112.795 20.9265C112.429 20.4967 111.889 20.131 111.176 19.8292C110.472 19.5275 109.608 19.2531 108.584 19.0062L105.525 18.2381C103.157 17.662 101.287 16.7613 99.9152 15.536C98.5435 14.3107 97.8623 12.6602 97.8714 10.5844C97.8623 8.8836 98.3149 7.39767 99.2293 6.12662C100.153 4.85558 101.419 3.86343 103.029 3.15018C104.638 2.43693 106.467 2.08031 108.515 2.08031C110.6 2.08031 112.42 2.43693 113.974 3.15018C115.538 3.86343 116.754 4.85558 117.623 6.12662C118.492 7.39767 118.94 8.86988 118.967 10.5433H113.275Z"/></svg>