<svg xmlns="http://www.w3.org/2000/svg" width="32" fill="none" viewBox="0 0 92 103"><path fill="#3B82F6" fill-rule="evenodd" d="M78.3501 13.5665C69.7703 4.98675 58.1337 0.166672 46 0.166672C33.8663 0.166672 22.2297 4.98675 13.6499 13.5665C5.07008 22.1463 0.25 33.783 0.25 45.9167C0.25 61.5428 8.76967 74.3274 17.7468 83.5079C22.5509 88.357 27.8168 92.7257 33.4696 96.5518L35.5537 97.9395L36.5298 98.5749L39.1731 100.202L41.2878 101.432C42.7238 102.249 44.3477 102.679 46 102.679C47.6523 102.679 49.2762 102.249 50.7123 101.432L52.8269 100.202L54.5349 99.1595L56.4513 97.9395L57.468 97.2634L59.6335 95.7893C64.8733 92.1528 69.7672 88.0417 74.2532 83.5079C83.2303 74.3325 91.75 61.5428 91.75 45.9167C91.75 33.783 86.9299 22.1463 78.3501 13.5665ZM46.0001 85.7939C68.4528 85.7939 86.6544 67.5923 86.6544 45.1395C86.6544 22.6867 68.4528 4.48515 46.0001 4.48515C23.5473 4.48515 5.3457 22.6867 5.3457 45.1395C5.3457 67.5923 23.5473 85.7939 46.0001 85.7939Z" clip-rule="evenodd"/><circle cx="46" cy="45.139" r="40.654" fill="#161E29"/><path fill="#3B82F6" d="M67 45.0099V27.0099H70V18.0099H22V27.0099H25V45.0099H16C16 47.8044 17.9125 50.1549 20.5 50.8209V66.0099C20.5 67.6659 21.844 69.0099 23.5 69.0099H26.5C28.156 69.0099 29.5 67.6659 29.5 66.0099V63.0099H62.5V66.0099C62.5 67.6659 63.844 69.0099 65.5 69.0099H68.5C70.156 69.0099 71.5 67.6659 71.5 66.0099V50.8209C74.0875 50.1549 76 47.8044 76 45.0099H67ZM34 51.0099C31.5145 51.0099 29.5 48.9939 29.5 46.5099C29.5 44.0259 31.5145 42.0099 34 42.0099C36.4855 42.0099 38.5 44.0259 38.5 46.5099C38.5 48.9939 36.4855 51.0099 34 51.0099ZM43 54.0099H40V43.5099C40 42.6819 40.672 42.0099 41.5 42.0099C42.328 42.0099 43 42.6819 43 43.5099V54.0099ZM47.5 54.0099H44.5V43.5099C44.5 42.6819 45.172 42.0099 46 42.0099C46.8295 42.0099 47.5 42.6819 47.5 43.5099V54.0099ZM52 54.0099H49V43.5099C49 42.6819 49.6705 42.0099 50.5 42.0099C51.3295 42.0099 52 42.6819 52 43.5099V54.0099ZM58 51.0099C55.516 51.0099 53.5 48.9939 53.5 46.5099C53.5 44.0259 55.516 42.0099 58 42.0099C60.484 42.0099 62.5 44.0259 62.5 46.5099C62.5 48.9939 60.484 51.0099 58 51.0099ZM62.5 37.4919C57.766 36.5559 52.0945 36.0099 46 36.0099C39.9055 36.0099 34.234 36.5559 29.5 37.4919V27.0099H62.5V37.4919Z"/></svg>