<svg xmlns="http://www.w3.org/2000/svg" width="135" fill="none" viewBox="0 0 135 33"><path fill="#64748B" fill-rule="evenodd" d="M32.4524 0.392822H18.1528C16.43 0.392822 15.0202 2.32036 14.9897 4.66812H17.2903L15.7578 11.9695H3.12759V15.7819H1.94609V17.4498L0.604736 19.5395C0.604736 19.5395 4.30147 21.4381 6.05467 19.5098C7.83072 17.5579 10.1168 17.4506 10.1168 17.4506H16.0852L21.596 25.0587H32.4524V14.6073L32.4319 14.6073C31.593 14.608 30.9079 14.1041 30.9086 13.4874C30.9094 12.8708 31.5953 12.3661 32.4335 12.3653L32.4524 12.3653V0.392822ZM26.7102 14.2731C26.7102 12.5077 27.9808 10.4005 30.4991 10.4005V4.66812H18.9788C18.7484 5.52623 18.3465 7.99608 18.0856 9.59917C17.9662 10.3327 17.8763 10.8848 17.846 11.0179C16.6112 16.416 20.2547 18.1982 22.6481 18.1982H26.7102V14.2731Z" clip-rule="evenodd"/><path fill="#64748B" d="M32.4524 25.8109H21.6364V27.6235C21.6364 28.62 22.6055 29.4345 24.329 29.4345H32.4524V25.8109Z"/><path fill="#64748B" d="M11.9941 27.1926H12.0025C12.9586 27.1979 13.742 26.4298 13.7504 25.4736C13.7595 24.5129 12.9906 23.725 12.0314 23.7159H12.0223C11.0669 23.7083 10.2835 24.4787 10.2744 25.4333C10.2653 26.3955 11.0341 27.1819 11.9941 27.1926Z"/><path fill="#64748B" fill-rule="evenodd" d="M12.0139 18.5149H12.0459C15.8789 18.5316 18.9704 21.6536 18.9559 25.4835C18.9384 29.3074 15.8332 32.3928 12.0154 32.3928H11.9842C8.15197 32.3784 5.05969 29.2602 5.07568 25.4242C5.09243 21.6018 8.19689 18.5149 12.0139 18.5149ZM11.9728 29.2587H11.9918C14.0846 29.2724 15.7997 27.5907 15.8195 25.4965C15.8393 23.3938 14.1553 21.6688 12.055 21.649H12.036C9.94248 21.6323 8.22734 23.3147 8.20754 25.4097C8.18851 27.5138 9.87168 29.2389 11.9728 29.2587Z" clip-rule="evenodd"/><path fill="#64748B" d="M0.604736 27.6235H3.65362V22.0852H0.604736V27.6235Z"/><path fill="#64748B" d="M49.085 2.4637H54.9558V22.0515C54.9558 23.8622 54.5489 25.435 53.735 26.7702C52.9303 28.1053 51.8101 29.1341 50.3743 29.8565C48.9386 30.5789 47.2697 30.9401 45.3677 30.9401C43.6759 30.9401 42.1396 30.6429 40.7588 30.0485C39.3871 29.445 38.2988 28.5305 37.4941 27.3051C36.6894 26.0706 36.2916 24.5206 36.3007 22.6551H42.2128C42.231 23.3958 42.3819 24.0313 42.6654 24.5617C42.958 25.083 43.3558 25.4853 43.8588 25.7688C44.3709 26.0432 44.9744 26.1803 45.6694 26.1803C46.401 26.1803 47.0183 26.0249 47.5212 25.714C48.0333 25.3939 48.422 24.9275 48.6872 24.3148C48.9524 23.7021 49.085 22.9477 49.085 22.0515V2.4637Z"/><path fill="#64748B" d="M61.7978 30.556V2.4637H80.7272V7.36066H67.7373V14.0545H79.7533V18.9515H67.7373V25.6591H80.7821V30.556H61.7978Z"/><path fill="#64748B" d="M87.3807 30.556V2.4637H106.31V7.36066H93.3201V14.0545H105.336V18.9515H93.3201V25.6591H106.365V30.556H87.3807Z"/><path fill="#64748B" d="M112.963 30.556V2.4637H124.047C126.178 2.4637 127.993 2.87064 129.492 3.68451C130.992 4.48924 132.135 5.60946 132.922 7.04517C133.717 8.47173 134.115 10.1178 134.115 11.9833C134.115 13.8488 133.713 15.4948 132.908 16.9214C132.103 18.3479 130.937 19.459 129.41 20.2546C127.892 21.0502 126.054 21.448 123.896 21.448H116.832V16.6882H122.936C124.079 16.6882 125.021 16.4916 125.761 16.0984C126.511 15.696 127.069 15.1427 127.435 14.4386C127.81 13.7253 127.997 12.9069 127.997 11.9833C127.997 11.0505 127.81 10.2366 127.435 9.54165C127.069 8.83752 126.511 8.29341 125.761 7.90934C125.012 7.51612 124.061 7.31951 122.908 7.31951H118.903V30.556H112.963Z"/></svg>