<svg width="44" viewBox="0 0 88 88" fill="none" xmlns="http://www.w3.org/2000/svg">
<g filter="url(#filter0_d_71_4)">
<path fill-rule="evenodd" clip-rule="evenodd" d="M74.8018 33.8413C74.8018 42.0131 71.5567 49.8504 65.7799 55.6301L60.8167 60.5317L50.1027 70.9597C46.8907 74.0661 41.8967 74.2421 38.4867 71.4789L37.9015 70.9597L28.9123 62.2257L22.2199 55.6301C16.4431 49.8504 13.198 42.0131 13.198 33.8413C13.198 25.6696 16.4431 17.8323 22.2199 12.0525C25.0794 9.19112 28.4747 6.9212 32.2118 5.3725C35.9489 3.8238 39.9546 3.02667 43.9999 3.02667C48.0452 3.02667 52.0509 3.8238 55.788 5.3725C59.5251 6.9212 62.9204 9.19112 65.7799 12.0525C71.5567 17.8323 74.8018 25.6696 74.8018 33.8413ZM44 58.7242C57.4137 58.7242 68.2876 47.8503 68.2876 34.4366C68.2876 21.023 57.4137 10.149 44 10.149C30.5863 10.149 19.7124 21.023 19.7124 34.4366C19.7124 47.8503 30.5863 58.7242 44 58.7242Z" fill="#2563EB"/>
</g>
<circle cx="44" cy="34.4366" r="24.2876" fill="white"/>
<path d="M57.1433 35.4299V23.5105H59.0209V17.5508H28.9791V23.5105H30.8567V35.4299H25.2239C25.2239 37.2804 26.4209 38.8369 28.0403 39.2779V49.336C28.0403 50.4326 28.8815 51.3225 29.9179 51.3225H31.7955C32.832 51.3225 33.6731 50.4326 33.6731 49.336V47.3494H54.3269V49.336C54.3269 50.4326 55.168 51.3225 56.2045 51.3225H58.0821C59.1185 51.3225 59.9597 50.4326 59.9597 49.336V39.2779C61.5791 38.8369 62.7761 37.2804 62.7761 35.4299H57.1433ZM36.4896 39.4031C34.9339 39.4031 33.6731 38.0681 33.6731 36.4232C33.6731 34.7783 34.9339 33.4434 36.4896 33.4434C38.0452 33.4434 39.306 34.7783 39.306 36.4232C39.306 38.0681 38.0452 39.4031 36.4896 39.4031ZM42.1224 41.3897H40.2448V34.4367C40.2448 33.8884 40.6654 33.4434 41.1836 33.4434C41.7018 33.4434 42.1224 33.8884 42.1224 34.4367V41.3897ZM44.9388 41.3897H43.0612V34.4367C43.0612 33.8884 43.4818 33.4434 44 33.4434C44.5192 33.4434 44.9388 33.8884 44.9388 34.4367V41.3897ZM47.7552 41.3897H45.8776V34.4367C45.8776 33.8884 46.2973 33.4434 46.8164 33.4434C47.3356 33.4434 47.7552 33.8884 47.7552 34.4367V41.3897ZM51.5104 39.4031C49.9558 39.4031 48.694 38.0681 48.694 36.4232C48.694 34.7783 49.9558 33.4434 51.5104 33.4434C53.0651 33.4434 54.3269 34.7783 54.3269 36.4232C54.3269 38.0681 53.0651 39.4031 51.5104 39.4031ZM54.3269 30.4516C51.364 29.8318 47.8144 29.4702 44 29.4702C40.1856 29.4702 36.636 29.8318 33.6731 30.4516V23.5105H54.3269V30.4516Z" fill="#2563EB"/>
<defs>
<filter id="filter0_d_71_4" x="13.198" y="3.02667" width="63.6038" height="72.4015" filterUnits="userSpaceOnUse" color-interpolation-filters="sRGB">
<feFlood flood-opacity="0" result="BackgroundImageFix"/>
<feColorMatrix in="SourceAlpha" type="matrix" values="0 0 0 0 0 0 0 0 0 0 0 0 0 0 0 0 0 0 127 0" result="hardAlpha"/>
<feOffset dx="1" dy="1"/>
<feGaussianBlur stdDeviation="0.5"/>
<feComposite in2="hardAlpha" operator="out"/>
<feColorMatrix type="matrix" values="0 0 0 0 0 0 0 0 0 0 0 0 0 0 0 0 0 0 0.25 0"/>
<feBlend mode="normal" in2="BackgroundImageFix" result="effect1_dropShadow_71_4"/>
<feBlend mode="normal" in="SourceGraphic" in2="effect1_dropShadow_71_4" result="shape"/>
</filter>
</defs>
</svg>
