<svg xmlns="http://www.w3.org/2000/svg" width="125" fill="none" viewBox="0 0 126 30"><path fill="#fff" d="M36.5318 23.2723L31.7463 17.2649V23.2723H28.1826V4.43569H31.7463V15.1522L36.4809 9.17029H41.1137L34.9027 16.2467L41.1646 23.2723H36.5318Z"/><path fill="#fff" d="M49.3098 23.5014C47.9522 23.5014 46.7304 23.2044 45.6443 22.6105C44.5582 21.9995 43.7012 21.1426 43.0733 20.0395C42.4624 18.9365 42.157 17.6637 42.157 16.2213C42.157 14.7789 42.4709 13.5061 43.0988 12.4031C43.7437 11.3 44.6176 10.4515 45.7207 9.85758C46.8237 9.24666 48.054 8.9412 49.4116 8.9412C50.7692 8.9412 51.9995 9.24666 53.1026 9.85758C54.2056 10.4515 55.0711 11.3 55.699 12.4031C56.3438 13.5061 56.6663 14.7789 56.6663 16.2213C56.6663 17.6637 56.3353 18.9365 55.6735 20.0395C55.0287 21.1426 54.1462 21.9995 53.0262 22.6105C51.9232 23.2044 50.6844 23.5014 49.3098 23.5014ZM49.3098 20.3959C49.9547 20.3959 50.5571 20.2432 51.1171 19.9377C51.6941 19.6153 52.1523 19.1401 52.4917 18.5122C52.8311 17.8843 53.0007 17.1207 53.0007 16.2213C53.0007 14.8807 52.6444 13.854 51.9316 13.1413C51.2359 12.4115 50.3789 12.0467 49.3607 12.0467C48.3425 12.0467 47.4855 12.4115 46.7898 13.1413C46.111 13.854 45.7716 14.8807 45.7716 16.2213C45.7716 17.5619 46.1025 18.5971 46.7643 19.3268C47.4431 20.0395 48.2916 20.3959 49.3098 20.3959Z"/><path fill="#fff" d="M76.7933 8.96665C78.5242 8.96665 79.9158 9.50121 80.9679 10.5703C82.037 11.6224 82.5716 13.0988 82.5716 14.9995V23.2723H79.0079V15.4831C79.0079 14.3801 78.7279 13.54 78.1679 12.9631C77.6079 12.3691 76.8442 12.0722 75.8769 12.0722C74.9096 12.0722 74.1375 12.3691 73.5605 12.9631C73.0005 13.54 72.7205 14.3801 72.7205 15.4831V23.2723H69.1568V15.4831C69.1568 14.3801 68.8768 13.54 68.3168 12.9631C67.7568 12.3691 66.9932 12.0722 66.0259 12.0722C65.0416 12.0722 64.261 12.3691 63.684 12.9631C63.124 13.54 62.844 14.3801 62.844 15.4831V23.2723H59.2803V9.17029H62.844V10.8758C63.3022 10.2818 63.8877 9.81515 64.6004 9.47575C65.3301 9.13635 66.1277 8.96665 66.9932 8.96665C68.0962 8.96665 69.0805 9.20424 69.9459 9.67939C70.8114 10.1376 71.4817 10.7994 71.9569 11.6649C72.4151 10.8503 73.0769 10.197 73.9424 9.70485C74.8248 9.21272 75.7751 8.96665 76.7933 8.96665Z"/><path fill="#fff" d="M99.4444 9.17029L90.7133 29.9415H86.9206L89.9752 22.9159L84.3242 9.17029H88.3206L91.9606 19.0213L95.6516 9.17029H99.4444Z"/><path fill="#fff" d="M114.678 9.17029V23.2723H111.089V21.4904C110.631 22.1014 110.029 22.585 109.282 22.9414C108.552 23.2808 107.755 23.4505 106.889 23.4505C105.786 23.4505 104.81 23.2214 103.962 22.7632C103.113 22.288 102.443 21.6007 101.951 20.7013C101.476 19.785 101.238 18.6989 101.238 17.4431V9.17029H104.802V16.934C104.802 18.054 105.082 18.9195 105.642 19.5304C106.202 20.1244 106.965 20.4213 107.933 20.4213C108.917 20.4213 109.689 20.1244 110.249 19.5304C110.809 18.9195 111.089 18.054 111.089 16.934V9.17029H114.678Z"/><path fill="#fff" d="M122.344 12.0976V18.9195C122.344 19.3947 122.454 19.7425 122.675 19.9631C122.912 20.1668 123.302 20.2686 123.845 20.2686H125.5V23.2723H123.26C120.256 23.2723 118.754 21.8129 118.754 18.894V12.0976H117.074V9.17029H118.754V5.68298H122.344V9.17029H125.5V12.0976H122.344Z"/><path fill="#3B82F6" d="M0.5 11.1812C0.5 4.72559 5.42599 0.551465 10.8705 0.551465C16.0558 0.551465 20.7743 4.3367 21.2021 10.2738H24.2096C24.7929 10.2738 25.0781 10.9738 24.6633 11.3757L20.3984 15.6405C20.1391 15.8998 19.7373 15.8998 19.478 15.6405L15.2132 11.3757C15.1243 11.2851 15.064 11.1704 15.0398 11.0459C15.0155 10.9214 15.0283 10.7924 15.0766 10.6751C15.1249 10.5578 15.2066 10.4572 15.3115 10.3859C15.4165 10.3146 15.54 10.2756 15.6669 10.2738H18.5965C18.1947 6.04783 14.928 3.14409 10.8705 3.14409C6.52785 3.14409 3.09263 6.47562 3.09263 11.1812C3.09263 14.2146 5.62044 18.2332 10.8705 23.0295C11.7001 22.2647 12.465 21.5258 13.165 20.8128C12.9369 20.3627 12.817 19.8656 12.815 19.361C12.815 18.5014 13.1564 17.6771 13.7642 17.0694C14.3719 16.4616 15.1962 16.1202 16.0558 16.1202C16.9153 16.1202 17.7396 16.4616 18.3473 17.0694C18.9551 17.6771 19.2965 18.5014 19.2965 19.361C19.2961 19.8622 19.179 20.3565 18.9545 20.8047C18.73 21.253 18.4043 21.6428 18.0031 21.9433C17.6019 22.2439 17.1363 22.447 16.643 22.5365C16.1498 22.626 15.6425 22.5995 15.1613 22.4591C14.1502 23.5221 12.9965 24.611 11.7261 25.7258C11.2335 26.1536 10.4946 26.1536 10.002 25.7258C3.67597 20.1517 0.5 15.3035 0.5 11.1812Z"/><path fill="#4ADE80" d="M19.4678 19.5654C19.4678 21.4398 17.9483 22.9594 16.0738 22.9594C14.1994 22.9594 12.6798 21.4398 12.6798 19.5654C12.6798 17.6909 14.1994 16.1714 16.0738 16.1714C17.9483 16.1714 19.4678 17.6909 19.4678 19.5654Z"/><path fill="#3B82F6" d="M91.7305 1.76862e-05C85.4576 -0.0125661 84.3433 6.69407 84.3433 6.69407H88.0684C88.0684 6.69407 88.2666 2.60311 91.7305 2.6079C95.1944 2.61269 95.6516 6.69407 95.6516 6.69407H99.2027C99.2027 6.69407 98.0034 0.0126015 91.7305 1.76862e-05Z"/></svg>