<svg width="32px" viewBox="0 0 92 103" fill="none" xmlns="http://www.w3.org/2000/svg">
<path fill-rule="evenodd" clip-rule="evenodd" d="M78.2351 13.5665C69.6554 4.98675 58.0187 0.166672 45.885 0.166672C33.7514 0.166672 22.1147 4.98675 13.5349 13.5665C4.95508 22.1463 0.13501 33.783 0.13501 45.9167C0.13501 61.5428 8.65468 74.3274 17.6318 83.5079C22.4359 88.357 27.7018 92.7257 33.3546 96.5518L35.4388 97.9395L36.4148 98.5749L39.0581 100.202L41.1728 101.432C42.6088 102.249 44.2327 102.679 45.885 102.679C47.5373 102.679 49.1613 102.249 50.5973 101.432L52.7119 100.202L54.4199 99.1595L56.3363 97.9395L57.353 97.2634L59.5185 95.7893C64.7583 92.1528 69.6522 88.0417 74.1382 83.5079C83.1153 74.3325 91.635 61.5428 91.635 45.9167C91.635 33.783 86.8149 22.1463 78.2351 13.5665ZM45.8851 85.7939C68.3379 85.7939 86.5394 67.5923 86.5394 45.1395C86.5394 22.6867 68.3379 4.48515 45.8851 4.48515C23.4323 4.48515 5.23071 22.6867 5.23071 45.1395C5.23071 67.5923 23.4323 85.7939 45.8851 85.7939Z" fill="#A855F7"/>
<circle cx="45.885" cy="45.1395" r="40.6544" fill="#161E29"/>
<path fill-rule="evenodd" clip-rule="evenodd" d="M23.5956 22.5575L23.6383 52.8609C23.7514 57.4917 25.8266 59.7514 29.5409 60.0334L20.885 72.6577H29.1735L30.9666 68.7319H60.8173L62.5965 72.6577H70.885L62.244 60.0334C65.9574 59.7514 68.0334 57.4917 68.1457 52.8609L68.1744 22.5575C63.8108 7.6039 27.9731 7.6039 23.5956 22.5575ZM39.8488 15.6391H51.9073C52.642 15.6391 53.2347 16.2319 53.2347 16.9666C53.2347 17.7143 52.6559 18.308 51.9073 18.308H39.8488C39.1141 18.308 38.5214 17.7143 38.5214 16.9805C38.5214 16.2319 39.1002 15.6391 39.8488 15.6391ZM31.4323 24.6475H60.3229C61.693 24.6475 62.8089 25.7635 62.8089 27.1327V44.346C62.8089 45.7152 61.693 46.8312 60.3229 46.8312H31.4323C30.0631 46.8312 28.9472 45.7152 28.9472 44.346V27.1327C28.9472 25.7635 30.0631 24.6475 31.4323 24.6475ZM62.0882 50.5306C63.783 50.5306 65.1522 51.9007 65.1522 53.5946C65.1522 55.2894 63.783 56.6586 62.0882 56.6586C60.3943 56.6586 59.0242 55.2894 59.0242 53.5946C59.0242 51.9007 60.3943 50.5306 62.0882 50.5306ZM29.526 50.5306C31.2208 50.5306 32.5909 51.9007 32.5909 53.5946C32.5909 55.2894 31.2208 56.6586 29.526 56.6586C27.8321 56.6586 26.462 55.2894 26.462 53.5946C26.462 51.9007 27.8321 50.5306 29.526 50.5306ZM32.6893 64.0297H59.0947L57.1318 59.7236L34.6661 59.6948L32.6893 64.0297Z" fill="#A855F7"/>
</svg>
