<svg xmlns="http://www.w3.org/2000/svg" width="167" fill="none" viewBox="0 0 167 33"><path fill="#64748B" fill-rule="evenodd" d="M38.9228 0.392822H16.0074C11.4548 0.392822 7.22064 2.72856 4.79235 6.57949C1.96628 11.0612 0.466521 16.2513 0.466521 21.5497V25.6314C0.466521 26.2607 0.976637 26.7708 1.60593 26.7708H7.14131C7.63087 26.7708 8.02336 26.4055 8.11068 25.9238C8.50907 23.7259 10.4303 22.0618 12.7439 22.0618H32.4722C34.7858 22.0618 36.707 23.7259 37.1054 25.9238C37.1927 26.4055 37.5852 26.7708 38.0747 26.7708H38.9228V13.4396H21.8805C20.779 13.4396 19.8861 12.5467 19.8861 11.4452V5.54505C19.8861 4.44356 20.779 3.55066 21.8805 3.55066H38.9228V0.392822ZM13.2104 3.55066C14.3271 3.55066 15.2324 4.45597 15.2324 5.57273V11.4868C15.2324 12.5653 14.3581 13.4396 13.2796 13.4396H8.5248C6.64467 13.4396 5.50666 11.3625 6.51861 9.77795L9.03455 5.83852C9.94482 4.41322 11.5192 3.55066 13.2104 3.55066Z" clip-rule="evenodd"/><path fill="#64748B" d="M38.9228 31.0509H1.02218C0.65163 31.0509 0.351196 31.3513 0.351196 31.7218C0.351196 32.0924 0.65163 32.3928 1.02218 32.3928H38.9228V31.0509Z"/><path fill="#64748B" d="M9.42725 26.7708C9.42725 28.6031 10.9155 30.0884 12.7513 30.0884C14.5871 30.0884 16.0753 28.6031 16.0753 26.7708C16.0753 28.6031 17.5635 30.0884 19.3993 30.0884C21.2351 30.0884 22.7233 28.6031 22.7233 26.7708C22.7233 28.6031 24.2116 30.0884 26.0474 30.0884C27.8832 30.0884 29.3714 28.6031 29.3714 26.7708C29.3714 28.6031 30.8596 30.0884 32.6955 30.0884C34.5313 30.0884 36.0195 28.6031 36.0195 26.7708C36.0195 24.9386 34.5313 23.4533 32.6955 23.4533C30.8596 23.4533 29.3714 24.9386 29.3714 26.7708C29.3714 24.9386 27.8832 23.4533 26.0474 23.4533C24.2116 23.4533 22.7233 24.9386 22.7233 26.7708C22.7233 24.9386 21.2351 23.4533 19.3993 23.4533C17.5635 23.4533 16.0753 24.9386 16.0753 26.7708C16.0753 24.9386 14.5871 23.4533 12.7513 23.4533C10.9155 23.4533 9.42725 24.9386 9.42725 26.7708Z"/><path fill="#64748B" d="M43.2373 7.36109V2.46437H66.3081V7.36109H57.708V30.5554H51.8374V7.36109H43.2373Z"/><path fill="#64748B" d="M72.0388 30.5554V2.46437H83.1216C85.2431 2.46437 87.0536 2.84385 88.5533 3.60282C90.062 4.35265 91.2096 5.41795 91.996 6.79872C92.7916 8.17035 93.1894 9.7843 93.1894 11.6406C93.1894 13.506 92.787 15.1108 91.9823 16.455C91.1776 17.7901 90.0118 18.8142 88.4847 19.5275C86.9667 20.2407 85.1287 20.5973 82.9707 20.5973H75.5502V15.8241H82.0106C83.1445 15.8241 84.0863 15.6686 84.8361 15.3577C85.586 15.0468 86.1438 14.5804 86.5095 13.9586C86.8844 13.3368 87.0719 12.5641 87.0719 11.6406C87.0719 10.7079 86.8844 9.92147 86.5095 9.28137C86.1438 8.64128 85.5814 8.15663 84.8224 7.82744C84.0726 7.48911 83.1262 7.31994 81.9831 7.31994H77.978V30.5554H72.0388ZM87.2091 17.7718L94.1907 30.5554H87.6343L80.8035 17.7718H87.2091Z"/><path fill="#64748B" d="M104.16 30.5554H97.7953L107.493 2.46437H115.146L124.83 30.5554H118.466L111.429 8.8836H111.21L104.16 30.5554ZM103.762 19.5137H118.795V24.1499H103.762V19.5137Z"/><path fill="#64748B" d="M136.082 2.46437V30.5554H130.142V2.46437H136.082Z"/><path fill="#64748B" d="M166.395 2.46437V30.5554H161.265L149.044 12.875H148.838V30.5554H142.899V2.46437H148.112L160.237 20.131H160.484V2.46437H166.395Z"/></svg>